<mxfile host="app.diagrams.net" modified="2023-11-02T14:27:49.277Z" agent="Mozilla/5.0 (Windows NT 10.0; Win64; x64) AppleWebKit/537.36 (KHTML, like Gecko) Chrome/118.0.0.0 Safari/537.36" etag="Zgd7CTOtu7d_HnEdb2vu" version="22.0.8" type="device">
  <diagram name="Page-1" id="q2sg5Q0MMkTiX_ys8nRL">
    <mxGraphModel dx="1167" dy="1732" grid="1" gridSize="10" guides="1" tooltips="1" connect="1" arrows="1" fold="1" page="1" pageScale="1" pageWidth="850" pageHeight="1100" math="0" shadow="0">
      <root>
        <mxCell id="0" />
        <mxCell id="1" parent="0" />
        <mxCell id="kggK5vC6ca-uO_9hVzlO-1" value="Wallet Activity" style="rounded=0;whiteSpace=wrap;html=1;" vertex="1" parent="1">
          <mxGeometry x="160" y="-680" width="120" height="60" as="geometry" />
        </mxCell>
        <mxCell id="kggK5vC6ca-uO_9hVzlO-2" value="" style="endArrow=none;dashed=1;html=1;strokeWidth=2;rounded=0;" edge="1" parent="1" source="kggK5vC6ca-uO_9hVzlO-6" target="kggK5vC6ca-uO_9hVzlO-1">
          <mxGeometry width="50" height="50" relative="1" as="geometry">
            <mxPoint x="220" y="-320" as="sourcePoint" />
            <mxPoint x="530" y="-450" as="targetPoint" />
          </mxGeometry>
        </mxCell>
        <mxCell id="kggK5vC6ca-uO_9hVzlO-3" value="RecyclerView&#39;s item" style="rounded=0;whiteSpace=wrap;html=1;" vertex="1" parent="1">
          <mxGeometry x="360" y="-680" width="120" height="60" as="geometry" />
        </mxCell>
        <mxCell id="kggK5vC6ca-uO_9hVzlO-4" value="" style="endArrow=none;dashed=1;html=1;strokeWidth=2;rounded=0;" edge="1" parent="1" source="kggK5vC6ca-uO_9hVzlO-10" target="kggK5vC6ca-uO_9hVzlO-3">
          <mxGeometry width="50" height="50" relative="1" as="geometry">
            <mxPoint x="420" y="-320" as="sourcePoint" />
            <mxPoint x="730" y="-450" as="targetPoint" />
          </mxGeometry>
        </mxCell>
        <mxCell id="kggK5vC6ca-uO_9hVzlO-5" value="" style="endArrow=none;dashed=1;html=1;strokeWidth=2;rounded=0;" edge="1" parent="1" target="kggK5vC6ca-uO_9hVzlO-6">
          <mxGeometry width="50" height="50" relative="1" as="geometry">
            <mxPoint x="220" y="-360" as="sourcePoint" />
            <mxPoint x="220" y="-620" as="targetPoint" />
          </mxGeometry>
        </mxCell>
        <mxCell id="kggK5vC6ca-uO_9hVzlO-6" value="" style="rounded=0;whiteSpace=wrap;html=1;" vertex="1" parent="1">
          <mxGeometry x="210" y="-560" width="20" height="170" as="geometry" />
        </mxCell>
        <mxCell id="kggK5vC6ca-uO_9hVzlO-7" value="" style="endArrow=none;dashed=1;html=1;strokeWidth=2;rounded=0;" edge="1" parent="1" target="kggK5vC6ca-uO_9hVzlO-10">
          <mxGeometry width="50" height="50" relative="1" as="geometry">
            <mxPoint x="420" y="-360" as="sourcePoint" />
            <mxPoint x="420" y="-620" as="targetPoint" />
          </mxGeometry>
        </mxCell>
        <mxCell id="kggK5vC6ca-uO_9hVzlO-8" style="edgeStyle=orthogonalEdgeStyle;rounded=0;orthogonalLoop=1;jettySize=auto;html=1;exitX=1;exitY=0.25;exitDx=0;exitDy=0;entryX=0;entryY=0.25;entryDx=0;entryDy=0;" edge="1" parent="1" source="kggK5vC6ca-uO_9hVzlO-10" target="kggK5vC6ca-uO_9hVzlO-18">
          <mxGeometry relative="1" as="geometry" />
        </mxCell>
        <mxCell id="kggK5vC6ca-uO_9hVzlO-9" value="onItemClickListener()&lt;br&gt;(manually defined)" style="edgeLabel;html=1;align=center;verticalAlign=middle;resizable=0;points=[];" vertex="1" connectable="0" parent="kggK5vC6ca-uO_9hVzlO-8">
          <mxGeometry x="-0.0337" y="1" relative="1" as="geometry">
            <mxPoint as="offset" />
          </mxGeometry>
        </mxCell>
        <mxCell id="kggK5vC6ca-uO_9hVzlO-10" value="" style="rounded=0;whiteSpace=wrap;html=1;" vertex="1" parent="1">
          <mxGeometry x="410" y="-560" width="20" height="66" as="geometry" />
        </mxCell>
        <mxCell id="kggK5vC6ca-uO_9hVzlO-11" value="" style="endArrow=classic;html=1;rounded=0;entryX=0;entryY=0.25;entryDx=0;entryDy=0;" edge="1" parent="1" target="kggK5vC6ca-uO_9hVzlO-10">
          <mxGeometry width="50" height="50" relative="1" as="geometry">
            <mxPoint x="230" y="-543" as="sourcePoint" />
            <mxPoint x="570" y="-560" as="targetPoint" />
          </mxGeometry>
        </mxCell>
        <mxCell id="kggK5vC6ca-uO_9hVzlO-12" value="Click on" style="edgeLabel;html=1;align=center;verticalAlign=middle;resizable=0;points=[];" vertex="1" connectable="0" parent="kggK5vC6ca-uO_9hVzlO-11">
          <mxGeometry x="-0.0728" relative="1" as="geometry">
            <mxPoint as="offset" />
          </mxGeometry>
        </mxCell>
        <mxCell id="kggK5vC6ca-uO_9hVzlO-13" value="CryptoWalletAdapter" style="rounded=0;whiteSpace=wrap;html=1;" vertex="1" parent="1">
          <mxGeometry x="560" y="-680" width="120" height="60" as="geometry" />
        </mxCell>
        <mxCell id="kggK5vC6ca-uO_9hVzlO-14" value="" style="endArrow=none;dashed=1;html=1;strokeWidth=2;rounded=0;" edge="1" parent="1" source="kggK5vC6ca-uO_9hVzlO-18" target="kggK5vC6ca-uO_9hVzlO-13">
          <mxGeometry width="50" height="50" relative="1" as="geometry">
            <mxPoint x="620" y="-320" as="sourcePoint" />
            <mxPoint x="930" y="-450" as="targetPoint" />
          </mxGeometry>
        </mxCell>
        <mxCell id="kggK5vC6ca-uO_9hVzlO-15" value="" style="endArrow=none;dashed=1;html=1;strokeWidth=2;rounded=0;" edge="1" parent="1" target="kggK5vC6ca-uO_9hVzlO-18">
          <mxGeometry width="50" height="50" relative="1" as="geometry">
            <mxPoint x="620" y="-360" as="sourcePoint" />
            <mxPoint x="620" y="-620" as="targetPoint" />
          </mxGeometry>
        </mxCell>
        <mxCell id="kggK5vC6ca-uO_9hVzlO-16" style="edgeStyle=orthogonalEdgeStyle;rounded=0;orthogonalLoop=1;jettySize=auto;html=1;exitX=1;exitY=0.25;exitDx=0;exitDy=0;entryX=-0.065;entryY=0.1;entryDx=0;entryDy=0;entryPerimeter=0;" edge="1" parent="1" source="kggK5vC6ca-uO_9hVzlO-18" target="kggK5vC6ca-uO_9hVzlO-24">
          <mxGeometry relative="1" as="geometry">
            <mxPoint x="800" y="-543" as="targetPoint" />
          </mxGeometry>
        </mxCell>
        <mxCell id="kggK5vC6ca-uO_9hVzlO-17" value="startActivity()" style="edgeLabel;html=1;align=center;verticalAlign=middle;resizable=0;points=[];" vertex="1" connectable="0" parent="kggK5vC6ca-uO_9hVzlO-16">
          <mxGeometry x="0.0044" relative="1" as="geometry">
            <mxPoint as="offset" />
          </mxGeometry>
        </mxCell>
        <mxCell id="kggK5vC6ca-uO_9hVzlO-18" value="" style="rounded=0;whiteSpace=wrap;html=1;" vertex="1" parent="1">
          <mxGeometry x="610" y="-560" width="20" height="66" as="geometry" />
        </mxCell>
        <mxCell id="kggK5vC6ca-uO_9hVzlO-19" value="TradingActivity" style="rounded=0;whiteSpace=wrap;html=1;" vertex="1" parent="1">
          <mxGeometry x="760" y="-680" width="120" height="60" as="geometry" />
        </mxCell>
        <mxCell id="kggK5vC6ca-uO_9hVzlO-20" value="" style="endArrow=none;dashed=1;html=1;strokeWidth=2;rounded=0;" edge="1" parent="1" source="kggK5vC6ca-uO_9hVzlO-24" target="kggK5vC6ca-uO_9hVzlO-19">
          <mxGeometry width="50" height="50" relative="1" as="geometry">
            <mxPoint x="820" y="-320" as="sourcePoint" />
            <mxPoint x="1130" y="-450" as="targetPoint" />
          </mxGeometry>
        </mxCell>
        <mxCell id="kggK5vC6ca-uO_9hVzlO-21" value="" style="endArrow=none;dashed=1;html=1;strokeWidth=2;rounded=0;" edge="1" parent="1" target="kggK5vC6ca-uO_9hVzlO-24">
          <mxGeometry width="50" height="50" relative="1" as="geometry">
            <mxPoint x="820" y="-360" as="sourcePoint" />
            <mxPoint x="820" y="-620" as="targetPoint" />
          </mxGeometry>
        </mxCell>
        <mxCell id="kggK5vC6ca-uO_9hVzlO-22" style="edgeStyle=orthogonalEdgeStyle;rounded=0;orthogonalLoop=1;jettySize=auto;html=1;entryX=-0.104;entryY=0.376;entryDx=0;entryDy=0;entryPerimeter=0;exitX=1.003;exitY=0.13;exitDx=0;exitDy=0;exitPerimeter=0;" edge="1" parent="1" source="kggK5vC6ca-uO_9hVzlO-24" target="kggK5vC6ca-uO_9hVzlO-30">
          <mxGeometry relative="1" as="geometry">
            <mxPoint x="840" y="-545" as="sourcePoint" />
            <mxPoint x="1000" y="-544" as="targetPoint" />
            <Array as="points">
              <mxPoint x="920" y="-542" />
              <mxPoint x="920" y="-544" />
              <mxPoint x="1008" y="-544" />
            </Array>
          </mxGeometry>
        </mxCell>
        <mxCell id="kggK5vC6ca-uO_9hVzlO-23" value="Enter crypto amount &lt;br&gt;and click on" style="edgeLabel;html=1;align=center;verticalAlign=middle;resizable=0;points=[];" vertex="1" connectable="0" parent="kggK5vC6ca-uO_9hVzlO-22">
          <mxGeometry x="-0.0796" y="2" relative="1" as="geometry">
            <mxPoint as="offset" />
          </mxGeometry>
        </mxCell>
        <mxCell id="kggK5vC6ca-uO_9hVzlO-24" value="" style="rounded=0;whiteSpace=wrap;html=1;" vertex="1" parent="1">
          <mxGeometry x="810" y="-560" width="20" height="140" as="geometry" />
        </mxCell>
        <mxCell id="kggK5vC6ca-uO_9hVzlO-25" value="(TradingActivity) &lt;br&gt;Get Button" style="rounded=0;whiteSpace=wrap;html=1;" vertex="1" parent="1">
          <mxGeometry x="960" y="-680" width="120" height="60" as="geometry" />
        </mxCell>
        <mxCell id="kggK5vC6ca-uO_9hVzlO-26" value="" style="endArrow=none;dashed=1;html=1;strokeWidth=2;rounded=0;" edge="1" parent="1" source="kggK5vC6ca-uO_9hVzlO-30" target="kggK5vC6ca-uO_9hVzlO-25">
          <mxGeometry width="50" height="50" relative="1" as="geometry">
            <mxPoint x="1020" y="-320" as="sourcePoint" />
            <mxPoint x="1330" y="-450" as="targetPoint" />
          </mxGeometry>
        </mxCell>
        <mxCell id="kggK5vC6ca-uO_9hVzlO-27" value="" style="endArrow=none;dashed=1;html=1;strokeWidth=2;rounded=0;" edge="1" parent="1" source="kggK5vC6ca-uO_9hVzlO-34" target="kggK5vC6ca-uO_9hVzlO-30">
          <mxGeometry width="50" height="50" relative="1" as="geometry">
            <mxPoint x="1020" y="-320" as="sourcePoint" />
            <mxPoint x="1020" y="-620" as="targetPoint" />
          </mxGeometry>
        </mxCell>
        <mxCell id="kggK5vC6ca-uO_9hVzlO-28" style="edgeStyle=orthogonalEdgeStyle;rounded=0;orthogonalLoop=1;jettySize=auto;html=1;exitX=1;exitY=0.25;exitDx=0;exitDy=0;entryX=-0.034;entryY=0.058;entryDx=0;entryDy=0;entryPerimeter=0;" edge="1" parent="1" source="kggK5vC6ca-uO_9hVzlO-30" target="kggK5vC6ca-uO_9hVzlO-40">
          <mxGeometry relative="1" as="geometry">
            <mxPoint x="1200" y="-550" as="targetPoint" />
          </mxGeometry>
        </mxCell>
        <mxCell id="kggK5vC6ca-uO_9hVzlO-29" value="if successfully, &lt;br&gt;connect and update" style="edgeLabel;html=1;align=center;verticalAlign=middle;resizable=0;points=[];" vertex="1" connectable="0" parent="kggK5vC6ca-uO_9hVzlO-28">
          <mxGeometry x="-0.1177" relative="1" as="geometry">
            <mxPoint as="offset" />
          </mxGeometry>
        </mxCell>
        <mxCell id="kggK5vC6ca-uO_9hVzlO-30" value="" style="rounded=0;whiteSpace=wrap;html=1;" vertex="1" parent="1">
          <mxGeometry x="1010" y="-560" width="20" height="40" as="geometry" />
        </mxCell>
        <mxCell id="kggK5vC6ca-uO_9hVzlO-31" value="" style="endArrow=classic;html=1;rounded=0;exitX=1;exitY=1;exitDx=0;exitDy=0;entryX=1;entryY=0.25;entryDx=0;entryDy=0;" edge="1" parent="1" source="kggK5vC6ca-uO_9hVzlO-30" target="kggK5vC6ca-uO_9hVzlO-34">
          <mxGeometry width="50" height="50" relative="1" as="geometry">
            <mxPoint x="1060" y="-460" as="sourcePoint" />
            <mxPoint x="1080" y="-480" as="targetPoint" />
            <Array as="points">
              <mxPoint x="1070" y="-490" />
            </Array>
          </mxGeometry>
        </mxCell>
        <mxCell id="kggK5vC6ca-uO_9hVzlO-32" value="&lt;font style=&quot;font-size: 10px;&quot;&gt;enterred amount&amp;nbsp;&lt;br&gt;&amp;gt;&amp;nbsp;&lt;/font&gt;totalCoinAmount" style="edgeLabel;html=1;align=center;verticalAlign=middle;resizable=0;points=[];" vertex="1" connectable="0" parent="kggK5vC6ca-uO_9hVzlO-31">
          <mxGeometry x="-0.2526" y="-2" relative="1" as="geometry">
            <mxPoint x="31" y="2" as="offset" />
          </mxGeometry>
        </mxCell>
        <mxCell id="kggK5vC6ca-uO_9hVzlO-33" value="" style="endArrow=none;dashed=1;html=1;strokeWidth=2;rounded=0;" edge="1" parent="1" target="kggK5vC6ca-uO_9hVzlO-34">
          <mxGeometry width="50" height="50" relative="1" as="geometry">
            <mxPoint x="1020" y="-360" as="sourcePoint" />
            <mxPoint x="1020" y="-520" as="targetPoint" />
          </mxGeometry>
        </mxCell>
        <mxCell id="kggK5vC6ca-uO_9hVzlO-34" value="" style="rounded=0;whiteSpace=wrap;html=1;" vertex="1" parent="1">
          <mxGeometry x="1010" y="-470" width="20" height="40" as="geometry" />
        </mxCell>
        <mxCell id="kggK5vC6ca-uO_9hVzlO-35" style="edgeStyle=orthogonalEdgeStyle;rounded=0;orthogonalLoop=1;jettySize=auto;html=1;exitX=0;exitY=0.75;exitDx=0;exitDy=0;dashed=1;entryX=1.049;entryY=0.858;entryDx=0;entryDy=0;entryPerimeter=0;" edge="1" parent="1" source="kggK5vC6ca-uO_9hVzlO-34" target="kggK5vC6ca-uO_9hVzlO-24">
          <mxGeometry relative="1" as="geometry">
            <mxPoint x="840" y="-440" as="targetPoint" />
          </mxGeometry>
        </mxCell>
        <mxCell id="kggK5vC6ca-uO_9hVzlO-36" value="&quot;Insufficient&lt;br&gt;&amp;lt;coin code&amp;gt; balance&quot;" style="edgeLabel;html=1;align=center;verticalAlign=middle;resizable=0;points=[];" vertex="1" connectable="0" parent="kggK5vC6ca-uO_9hVzlO-35">
          <mxGeometry x="-0.0652" y="-1" relative="1" as="geometry">
            <mxPoint as="offset" />
          </mxGeometry>
        </mxCell>
        <mxCell id="kggK5vC6ca-uO_9hVzlO-37" value="&lt;font style=&quot;font-size: 10px;&quot;&gt;Firestore&#39; collections &quot;users&quot;, &quot;usersCryptoBalance&quot;,&lt;br&gt;&quot;transaction&quot;&lt;/font&gt;" style="rounded=0;whiteSpace=wrap;html=1;" vertex="1" parent="1">
          <mxGeometry x="1155" y="-680" width="120" height="60" as="geometry" />
        </mxCell>
        <mxCell id="kggK5vC6ca-uO_9hVzlO-38" value="" style="endArrow=none;dashed=1;html=1;strokeWidth=2;rounded=0;" edge="1" parent="1" target="kggK5vC6ca-uO_9hVzlO-37">
          <mxGeometry width="50" height="50" relative="1" as="geometry">
            <mxPoint x="1215" y="-360" as="sourcePoint" />
            <mxPoint x="1525" y="-450" as="targetPoint" />
          </mxGeometry>
        </mxCell>
        <mxCell id="kggK5vC6ca-uO_9hVzlO-39" value="&lt;font style=&quot;font-size: 18px;&quot;&gt;&lt;b&gt;Selling cryptocurrency&lt;/b&gt;&lt;/font&gt;" style="shape=umlFrame;whiteSpace=wrap;html=1;pointerEvents=0;width=290;height=30;" vertex="1" parent="1">
          <mxGeometry x="90" y="-730" width="1240" height="390" as="geometry" />
        </mxCell>
        <mxCell id="kggK5vC6ca-uO_9hVzlO-40" value="" style="rounded=0;whiteSpace=wrap;html=1;" vertex="1" parent="1">
          <mxGeometry x="1205" y="-560" width="20" height="170" as="geometry" />
        </mxCell>
        <mxCell id="kggK5vC6ca-uO_9hVzlO-41" style="edgeStyle=orthogonalEdgeStyle;rounded=0;orthogonalLoop=1;jettySize=auto;html=1;exitX=0;exitY=0.75;exitDx=0;exitDy=0;dashed=1;" edge="1" parent="1" target="kggK5vC6ca-uO_9hVzlO-6">
          <mxGeometry relative="1" as="geometry">
            <mxPoint x="1205" y="-400" as="sourcePoint" />
            <mxPoint x="1026" y="-400" as="targetPoint" />
            <Array as="points">
              <mxPoint x="480" y="-400" />
              <mxPoint x="480" y="-400" />
            </Array>
          </mxGeometry>
        </mxCell>
        <mxCell id="kggK5vC6ca-uO_9hVzlO-42" value="startActivity()" style="edgeLabel;html=1;align=center;verticalAlign=middle;resizable=0;points=[];" vertex="1" connectable="0" parent="kggK5vC6ca-uO_9hVzlO-41">
          <mxGeometry x="-0.0652" y="-1" relative="1" as="geometry">
            <mxPoint as="offset" />
          </mxGeometry>
        </mxCell>
      </root>
    </mxGraphModel>
  </diagram>
</mxfile>
